<svg xmlns="http://www.w3.org/2000/svg" viewBox="0 0 126 53"><defs><style>.cls-1{isolation:isolate;}.cls-2{fill:#1e3791;}.cls-3{fill:#e60005;}.cls-4{fill:none;}</style></defs><title>kulturb-color</title><g id="Ebene_2" data-name="Ebene 2"><g id="Ebene_1-2" data-name="Ebene 1"><g class="cls-1"><path class="cls-2" d="M56.51,37.92l2.07-14.38-1.81.12L54.72,37.92Zm-9.17-1.21c1.72,0,3-1.3,3.34-3.41l.71-4.8a12.28,12.28,0,0,0-1.32-.09c-2.51,0-4.1,1.59-4.55,4.67a10.56,10.56,0,0,0-.11,1.37C45.41,36.09,46.06,36.71,47.34,36.71ZM50.28,27c1.24,0,1.86.16,2.85.16h.24L51.83,37.92H50.42V36.4l0,0a4.54,4.54,0,0,1-3.65,1.72c-2.07,0-3.16-1.07-3.16-3.52C43.58,30,46.19,27,50.28,27Zm-14,1.53h1.57l-.85,6a7.71,7.71,0,0,0-.07,1c0,1.74.81,2.51,2.38,2.51a4.28,4.28,0,0,0,2.24-.63l0-1.23a3.1,3.1,0,0,1-1.54.47c-.81,0-1.24-.41-1.24-1.46a5.23,5.23,0,0,1,.06-.74l.85-5.9H42.6l.3-1.31h-3l.43-3-1.45.22-.68,2.8H36.57ZM34,23.5c-.86,0-1.3.38-1.3,1.08,0,.51.35.69,1,.69s1.29-.31,1.29-1.05C35.05,23.75,34.74,23.5,34,23.5ZM32.91,37.92l1.55-10.79-1.81.11L31.11,37.92ZM24,36c1.61,0,2.73-1.14,3-3.19l.61-4.3a10.52,10.52,0,0,0-1.37-.07c-2.46,0-4.23,2-4.23,5.32C22.05,35.41,22.77,36,24,36Zm5.62-8.77-1.29,9c-.49,3.34-2.48,4.56-5.31,4.56A7.71,7.71,0,0,1,19.94,40l.39-1.3a6.21,6.21,0,0,0,2.57.61c2,0,3.29-.72,3.64-3.17l.06-.35h0a3.72,3.72,0,0,1-3.18,1.49c-1.93,0-3.17-.86-3.17-3.41,0-4.18,2.34-6.87,6.2-6.87,1.09,0,1.91.16,2.8.16ZM17.94,23.5c-.85,0-1.3.38-1.3,1.08,0,.51.36.69,1,.69.83,0,1.29-.31,1.29-1.05C19,23.75,18.66,23.5,17.94,23.5ZM16.83,37.92l1.55-10.79-1.81.11L15,37.92ZM7.49,36.71c1.72,0,3-1.3,3.34-3.41l.67-4.59a6,6,0,0,0-2-.28c-2.11,0-3.35,1.35-3.77,4.31a10.9,10.9,0,0,0-.13,1.59C5.6,36.15,6.3,36.71,7.49,36.71Zm2-9.71a8.36,8.36,0,0,1,2.25.29l.54-3.64,1.81-.11L12,37.92H10.61l0-.71c0-.23,0-.5,0-.74l0,0A4.63,4.63,0,0,1,6.86,38.1c-2,0-3.09-1-3.09-3.61C3.77,29.44,6.06,27,9.45,27Zm45.3-7.13V14.39a2.6,2.6,0,0,1,2.61-2.89,4.48,4.48,0,0,1,1.22.18l.19-2.76a4.34,4.34,0,0,0-1.22-.16,3.38,3.38,0,0,0-3.07,2h-.06l-.26-1.82L51.87,9V19.87ZM49.68,8.94H46.82v7c0,1.12-.59,1.64-1.85,1.64S43.12,17,43.12,16v-7H40.25V16c0,2.6,1.54,4.06,4.72,4.06s4.71-1.4,4.71-4.06ZM38.79,11V8.94h-2.5V6.27L34,6.47l-.48,2.47H32.17V11h1.25v5.69a3,3,0,0,0,3.33,3.34,5.63,5.63,0,0,0,1.93-.31l-.17-2a3.22,3.22,0,0,1-.89.13c-.89,0-1.33-.36-1.33-1.21V11Zm-8.4,8.84V5.69l-2.91.13V19.87ZM25.08,8.94H22.21v7c0,1.12-.59,1.64-1.85,1.64S18.51,17,18.51,16v-7H15.64V16c0,2.6,1.54,4.06,4.72,4.06s4.72-1.4,4.72-4.06ZM7.3,5.69l-2.87.13V19.87H7.3v-4.7H8.76l2.39,4.7h3.24l-3.17-6,3.06-5H11.09l-2.33,4H7.3Z"/><path d="M113.23,43.26c-.87,0-1.38.42-1.38,1.07,0,.88,1.38.75,1.38,1.32,0,.29-.22.5-.64.5a1.36,1.36,0,0,1-.85-.28l-.23.49a1.83,1.83,0,0,0,1.06.32,1.17,1.17,0,0,0,1.33-1,.71.71,0,0,0,0-.14c0-.9-1.37-.76-1.37-1.28,0-.25.23-.42.58-.42a1.73,1.73,0,0,1,.73.15l.27-.49A1.86,1.86,0,0,0,113.23,43.26Zm-2.47,3.37.29-2.07a2.14,2.14,0,0,0,0-.34c0-.64-.31-1-.92-1a1.47,1.47,0,0,0-1,.36h0l0-.22.17-1.15-.72,0L108,46.63h.7l.27-1.89a.93.93,0,0,1,.89-.9c.31,0,.47.13.47.48,0,.08,0,.16,0,.26l-.3,2.05Zm-3.88-3.37c-.94,0-1.54.56-1.69,1.7a2.74,2.74,0,0,0,0,.48c0,.88.44,1.25,1.13,1.25a1.56,1.56,0,0,0,1.13-.41l-.19-.4a1.08,1.08,0,0,1-.72.27c-.39,0-.63-.18-.63-.74a3.31,3.31,0,0,1,0-.42c.12-.83.46-1.16,1-1.16a1.22,1.22,0,0,1,.56.12l.26-.49A1.76,1.76,0,0,0,106.88,43.26Zm-2.49-1.06c-.31,0-.47.13-.47.38s.13.24.38.24.47-.11.47-.36S104.66,42.2,104.39,42.2Zm-.26,4.43.47-3.33-.7,0-.47,3.29ZM102,43.77c-.49,0-.76.33-.89,1,1-.12,1.32-.39,1.32-.73C102.4,43.9,102.27,43.77,102,43.77Zm.07-.51c.65,0,1,.31,1,.73,0,.69-.58,1.1-2,1.27a.92.92,0,0,0,0,.16c0,.55.24.72.69.72a1.3,1.3,0,0,0,.86-.29l.19.42a1.88,1.88,0,0,1-1.25.42c-.72,0-1.18-.36-1.18-1.26a2.71,2.71,0,0,1,0-.47C100.52,43.83,101.1,43.26,102,43.26Zm-2.25,0a1.24,1.24,0,0,0-1.06.63h0a1.62,1.62,0,0,0,0-.22V43.3l-.55,0-.47,3.29h.7l.22-1.52c.11-.78.54-1.19,1-1.19A.77.77,0,0,1,100,44l.2-.64A1,1,0,0,0,99.79,43.26Zm-3.49.51c-.5,0-.76.33-.9,1,1-.12,1.32-.39,1.32-.73C96.72,43.9,96.59,43.77,96.3,43.77Zm.06-.51c.66,0,1,.31,1,.73,0,.69-.57,1.1-2,1.27a.92.92,0,0,0,0,.16c0,.55.24.72.69.72a1.33,1.33,0,0,0,.86-.29l.19.42a1.9,1.9,0,0,1-1.25.42c-.72,0-1.19-.36-1.19-1.26a4.26,4.26,0,0,1,0-.47C94.85,43.83,95.42,43.26,96.36,43.26Zm-3.47.56a1,1,0,0,0-.89.9L91.82,46a1,1,0,0,0,.59.17c.52,0,.81-.3.94-1.18a3.44,3.44,0,0,0,0-.51C93.39,44,93.21,43.82,92.89,43.82Zm.26-.56c.62,0,1,.31,1,1.13,0,1.57-.67,2.3-1.74,2.3a2.35,2.35,0,0,1-1.3-.38l.57-4,.72,0-.17,1.15,0,.22h0A1.42,1.42,0,0,1,93.15,43.26Zm-2.72,0a1.25,1.25,0,0,0-1.06.63h0a1.62,1.62,0,0,0,0-.22V43.3l-.55,0-.47,3.29H89l.22-1.52c.11-.78.54-1.19,1-1.19a.75.75,0,0,1,.35.07l.2-.64A1,1,0,0,0,90.43,43.26ZM88,43.32h-.71l-.31,2.18a.67.67,0,0,1-.74.62c-.39,0-.57-.16-.57-.48a.71.71,0,0,1,0-.14l.31-2.2-.71,0-.31,2.17a2,2,0,0,0,0,.23c0,.61.4.95,1.2.95a1.34,1.34,0,0,0,1.53-1.18Zm-5.51.54h.46l-.24,1.69a1.69,1.69,0,0,0,0,.3.71.71,0,0,0,.8.82,1.4,1.4,0,0,0,.7-.19V46a.89.89,0,0,1-.43.13c-.23,0-.35-.12-.35-.4a1.48,1.48,0,0,1,0-.2l.24-1.66h.85l.1-.51h-.88l.13-.92-.56.07-.23.85h-.47Zm-1,2.77L82,42.25l-.71,0-.62,4.34Zm-1.12-3.31h-.71l-.32,2.18a.66.66,0,0,1-.73.62c-.4,0-.58-.16-.58-.48,0,0,0-.09,0-.14l.32-2.2-.72,0-.3,2.17a.93.93,0,0,0,0,.23c0,.61.39.95,1.2.95A1.34,1.34,0,0,0,80,45.51ZM76.6,46.63l-1.13-2.19,1.63-2h-.88L74.81,44.2h-.53l.25-1.72h-.77l-.59,4.15h.77l.26-1.87h.52l1,1.87ZM70,43.26c-.87,0-1.37.42-1.37,1.07,0,.88,1.37.75,1.37,1.32,0,.29-.22.5-.63.5a1.39,1.39,0,0,1-.86-.28l-.22.49a1.8,1.8,0,0,0,1.06.32,1.17,1.17,0,0,0,1.33-1s0-.1,0-.14c0-.9-1.38-.76-1.38-1.28,0-.25.24-.42.59-.42a1.73,1.73,0,0,1,.73.15l.26-.49A1.8,1.8,0,0,0,70,43.26Zm-3,.51c-.49,0-.76.33-.89,1,1-.12,1.32-.39,1.32-.73C67.44,43.9,67.31,43.77,67,43.77Zm.07-.51c.65,0,1,.31,1,.73,0,.69-.58,1.1-2,1.27v.16c0,.55.23.72.68.72a1.3,1.3,0,0,0,.86-.29l.19.42a1.88,1.88,0,0,1-1.25.42c-.72,0-1.18-.36-1.18-1.26a2.71,2.71,0,0,1,0-.47C65.56,43.83,66.14,43.26,67.08,43.26ZM63,46.15a1,1,0,0,0,.89-.94l.19-1.32a1.9,1.9,0,0,0-.51-.07c-.58,0-.92.38-1,1.23a2.66,2.66,0,0,0,0,.45C62.48,46,62.67,46.15,63,46.15Zm.53-2.89a2.53,2.53,0,0,1,.63.08l.15-1.05.71,0-.63,4.38h-.54l0-.16a1.64,1.64,0,0,1,0-.22h0a1.39,1.39,0,0,1-1.06.45c-.62,0-1-.32-1-1.12C61.77,44,62.48,43.26,63.52,43.26ZM119,38.39c.43,0,.72-.32.81-.91l.17-1.17-.36,0c-.67,0-1.13.56-1.13,1.5C118.5,38.24,118.68,38.39,119,38.39Zm1.76-2.58-.4,2.78a1.52,1.52,0,0,1-1.69,1.4,2.47,2.47,0,0,1-1-.19l.15-.5a2.1,2.1,0,0,0,.77.17.9.9,0,0,0,1-.87v-.06h0a1.1,1.1,0,0,1-.89.39c-.59,0-1-.29-1-1.08a1.86,1.86,0,0,1,1.9-2.09c.31,0,.57.05.83.05Zm-4.69,3.32h.7l.3-2.08c0-.13,0-.24,0-.35,0-.63-.3-1-.92-1a1.37,1.37,0,0,0-1.07.46h0a1.7,1.7,0,0,0,0-.22v-.19l-.55,0-.47,3.3h.71l.26-1.86c.08-.58.42-.94.89-.94.32,0,.48.13.48.49a1.21,1.21,0,0,1,0,.25Zm-2.41-3.32H113L112.65,38a.66.66,0,0,1-.74.62c-.39,0-.57-.17-.57-.48a.66.66,0,0,1,0-.14l.31-2.21-.71,0L110.64,38a1.93,1.93,0,0,0,0,.23c0,.61.39,1,1.2,1A1.35,1.35,0,0,0,113.36,38Zm-4.07,3.32.62-4.39-.71,0-.62,4.35Zm-3.62,0,.17-1.22c.14-1,.71-1.58,1.18-1.58.22,0,.3.11.3.26,0,.34-.36.76-1,1a1.71,1.71,0,0,0,1.6,1.61l.15-.51a1.31,1.31,0,0,1-1-.88,1.61,1.61,0,0,0,1-1.38c0-.4-.22-.65-.74-.65a1.7,1.7,0,0,0-1.23.6h0c0-.07,0-.15,0-.22l.19-1.39-.71,0-.62,4.35Zm-1.86-3.38c-.94,0-1.54.57-1.7,1.7a4.64,4.64,0,0,0,0,.48c0,.89.44,1.26,1.14,1.26a1.59,1.59,0,0,0,1.12-.41l-.18-.41a1.12,1.12,0,0,1-.72.27c-.39,0-.64-.18-.64-.74a2.27,2.27,0,0,1,0-.42c.12-.83.46-1.15,1-1.15a1.26,1.26,0,0,1,.57.11L105,36A1.69,1.69,0,0,0,104.12,35.75Zm-2.49-1.06c-.31,0-.48.13-.48.38s.13.24.39.24.47-.11.47-.36S101.89,34.69,101.63,34.69Zm-.26,4.44.47-3.34-.71,0-.46,3.3Zm-1.29-3.41-.66.16a3,3,0,0,1,.06.56c0,1.42-.79,2.09-1,2.09s-.35-.24-.35-.88a4.48,4.48,0,0,1,0-.59l.18-1.24h-.71l-.16,1.12c-.15,1.08-.72,1.59-.88,1.59s-.32-.23-.32-.86a5,5,0,0,1,0-.61l.18-1.26-.71,0-.18,1.23a3.91,3.91,0,0,0,0,.57c0,1.11.55,1.55.83,1.55a1.86,1.86,0,0,0,1.18-1h0c.14.7.53,1,.75,1a2.71,2.71,0,0,0,1.81-2.74A2.33,2.33,0,0,0,100.08,35.72ZM93,36.35h.45L93.23,38c0,.11,0,.21,0,.31a.71.71,0,0,0,.79.81,1.41,1.41,0,0,0,.71-.18v-.5a.83.83,0,0,1-.44.13c-.22,0-.35-.12-.35-.4a1.68,1.68,0,0,1,0-.2l.24-1.66H95l.1-.51h-.88l.13-.91-.56.06-.23.85h-.47Zm-1.68,2.78H92l.3-2.08c0-.13,0-.24,0-.35a.83.83,0,0,0-.92-1,1.37,1.37,0,0,0-1.07.46h0a1.7,1.7,0,0,0,0-.22v-.19l-.55,0-.47,3.3H90l.27-1.86c.08-.58.41-.94.89-.94.32,0,.47.13.47.49a2.5,2.5,0,0,1,0,.25Zm-4.73-.6.18-1.28h1.65l.08-.55H86.87L87,35.58H89l.07-.6H86.36l-.59,4.15h2.78l.1-.6Zm-4.16-2.26c-.5,0-.76.32-.9,1,1-.12,1.32-.39,1.32-.73C82.87,36.39,82.74,36.27,82.45,36.27Zm.06-.52c.66,0,1,.31,1,.73,0,.69-.57,1.1-2,1.27a.92.92,0,0,0,0,.16c0,.55.24.72.69.72a1.39,1.39,0,0,0,.86-.28l.19.41a1.9,1.9,0,0,1-1.25.42,1.09,1.09,0,0,1-1.19-1.25,4.23,4.23,0,0,1,0-.48C81,36.33,81.58,35.75,82.51,35.75Zm-2.7,3.38.63-4.39-.72,0-.62,4.35Zm-3-.49a.93.93,0,0,0,.88-.89l.2-1.42-.33,0c-.67,0-1.11.42-1.23,1.32a3.17,3.17,0,0,0,0,.41C76.26,38.48,76.42,38.64,76.77,38.64Zm.83-2.88c.37,0,.56.05.86.05h.17l-.47,3.32h-.54V39a1.77,1.77,0,0,1,0-.23h0a1.38,1.38,0,0,1-1.06.46c-.65,0-1-.34-1-1.09A2.08,2.08,0,0,1,77.6,35.76Zm-4.46.59h.45L73.35,38a1.67,1.67,0,0,0,0,.31.71.71,0,0,0,.79.81,1.37,1.37,0,0,0,.7-.18v-.5a.77.77,0,0,1-.43.13c-.22,0-.35-.12-.35-.4a1.68,1.68,0,0,1,0-.2l.24-1.66h.84l.11-.51h-.88l.13-.91-.56.06-.23.85h-.47Zm-.82-1.66c-.31,0-.47.13-.47.38s.13.24.38.24.47-.11.47-.36S72.58,34.69,72.32,34.69Zm-.26,4.44.47-3.34-.71,0-.46,3.3Zm-3-.74c.43,0,.73-.32.81-.91l.17-1.17-.36,0c-.67,0-1.13.56-1.13,1.5C68.59,38.24,68.77,38.39,69.1,38.39Zm1.76-2.58-.4,2.78A1.51,1.51,0,0,1,68.77,40a2.5,2.5,0,0,1-1-.19l.15-.5a2.1,2.1,0,0,0,.77.17.89.89,0,0,0,1-.87v-.06h0a1.13,1.13,0,0,1-.9.39c-.59,0-1-.29-1-1.08a1.86,1.86,0,0,1,1.9-2.09c.31,0,.57.05.84.05ZM67,34.69c-.31,0-.47.13-.47.38s.13.24.38.24.48-.11.48-.36S67.3,34.69,67,34.69Zm-.26,4.44.48-3.34-.71,0-.47,3.3ZM63.08,35.6l-.41,2.91h.74c.74,0,1.11-.28,1.28-1.48a4.27,4.27,0,0,0,0-.56c0-.68-.29-.87-.91-.87ZM62.41,35h1.51c1.11,0,1.61.44,1.61,1.46a4.18,4.18,0,0,1,0,.59c-.22,1.51-.92,2.1-2.14,2.1H61.82Z"/><path class="cls-3" d="M65.84,10.84c0-1.1-.43-1.5-1.41-1.5H62.31v3.05h2.18C65.43,12.39,65.84,11.94,65.84,10.84Zm.29,5.54c0-1.17-.43-1.66-1.57-1.66H62.29v3.4h2.33C65.66,18.12,66.13,17.71,66.13,16.38Zm2.64.24c0,2.52-1.23,4.07-4.18,4.07H59.77v-14h4.76c2.54,0,3.82,1.37,3.82,3.59a3.06,3.06,0,0,1-1.56,3v0C68.08,13.75,68.77,14.85,68.77,16.62Z"/></g><rect class="cls-4" width="126" height="53"/></g></g></svg>