<!-- Generated by IcoMoon.io -->
<svg version="1.1" xmlns="http://www.w3.org/2000/svg" width="32" height="32" viewBox="0 0 32 32">
<title>chevron-back</title>
<path fill="#fff" d="M13.613 16l8 8c0.273 0.271 0.441 0.646 0.441 1.060s-0.169 0.789-0.441 1.060l-0 0c-0.273 0.266-0.648 0.431-1.060 0.431s-0.787-0.164-1.060-0.431l0 0-9.053-9.053c-0.257-0.268-0.415-0.632-0.415-1.033s0.158-0.766 0.416-1.034l-0.001 0.001 9.040-9.053c0.273-0.272 0.649-0.44 1.064-0.44 0.001 0 0.002 0 0.003 0h-0c0.416 0.002 0.792 0.17 1.067 0.44l-0-0c0.273 0.271 0.441 0.646 0.441 1.060s-0.169 0.789-0.441 1.060l-0 0z"></path>
</svg>
