<!-- Generated by IcoMoon.io -->
<svg version="1.1" xmlns="http://www.w3.org/2000/svg" width="32" height="32" viewBox="0 0 32 32">
<title>chevron-next</title>
<path fill="#fff" d="M18.387 16l-8-8c-0.273-0.271-0.441-0.646-0.441-1.060s0.169-0.789 0.441-1.060l0-0c0.274-0.266 0.648-0.431 1.060-0.431s0.787 0.164 1.060 0.431l-0-0 9 9c0.257 0.268 0.415 0.632 0.415 1.033s-0.158 0.766-0.416 1.034l0-0-8.933 9.107c-0.273 0.272-0.649 0.44-1.064 0.44-0.001 0-0.002 0-0.003 0h0c-0.416-0.002-0.792-0.17-1.067-0.44l0 0c-0.273-0.271-0.441-0.646-0.441-1.060s0.169-0.789 0.441-1.060l0-0z"></path>
</svg>
