<!-- Generated by IcoMoon.io -->
<svg version="1.1" xmlns="http://www.w3.org/2000/svg" width="32" height="32" viewBox="0 0 32 32">
<title>chevron-down</title>
<path fill="#fff" d="M16 18.387l8-8c0.271-0.273 0.646-0.441 1.060-0.441s0.789 0.169 1.060 0.441l0 0c0.266 0.274 0.431 0.648 0.431 1.060s-0.164 0.787-0.431 1.060l0-0-9.053 9.053c-0.268 0.257-0.632 0.415-1.033 0.415s-0.766-0.158-1.034-0.416l0.001 0-9.053-8.987c-0.272-0.273-0.44-0.649-0.44-1.064 0-0.001 0-0.002 0-0.003v0c0.002-0.416 0.17-0.792 0.44-1.067l-0 0c0.271-0.273 0.646-0.441 1.060-0.441s0.789 0.169 1.060 0.441l0 0z"></path>
</svg>
