<!-- Generated by IcoMoon.io -->
<svg version="1.1" xmlns="http://www.w3.org/2000/svg" width="32" height="32" viewBox="0 0 32 32">
<title>close</title>
<path fill="#fff" d="M19.293 20.707l-3.293-3.293-3.293 3.293c-0.181 0.181-0.431 0.292-0.707 0.292s-0.526-0.112-0.707-0.292v0c-0.181-0.181-0.292-0.431-0.292-0.707s0.112-0.526 0.292-0.707v0l3.293-3.293-3.293-3.293c-0.181-0.181-0.292-0.431-0.292-0.707s0.112-0.526 0.292-0.707v0c0.181-0.181 0.431-0.292 0.707-0.292s0.526 0.112 0.707 0.292v0l3.293 3.293 3.293-3.293c0.178-0.166 0.418-0.268 0.682-0.268 0.552 0 1 0.448 1 1 0 0.264-0.102 0.504-0.269 0.682l0.001-0.001-3.293 3.293 3.293 3.293c0.166 0.178 0.268 0.418 0.268 0.682 0 0.552-0.448 1-1 1-0.264 0-0.504-0.102-0.682-0.269l0.001 0.001zM16 3c-7.18 0-13 5.82-13 13s5.82 13 13 13c7.18 0 13-5.82 13-13v0c0-0.004 0-0.009 0-0.013 0-7.172-5.814-12.987-12.987-12.987-0.005 0-0.009 0-0.014 0h0.001z"></path>
</svg>
