<!-- Generated by IcoMoon.io -->
<svg version="1.1" xmlns="http://www.w3.org/2000/svg" width="32" height="32" viewBox="0 0 32 32">
<title>comment</title>
<path fill="#fff" d="M20 3c1.127 0 2.040 0.913 2.040 2.040v4.080h-11.133c0 0-0 0-0 0-1.129 0-2.046 0.912-2.053 2.039v6.241h-3.813c-1.127 0-2.040-0.913-2.040-2.040v0-10.32c0.007-1.124 0.916-2.033 2.039-2.040h0.001zM26.667 10.667c1.311 0 2.373 1.063 2.373 2.373v0 9.627c-0.153 1.341-1.281 2.373-2.651 2.373-0.006 0-0.011-0-0.017-0h0.001c-0.373 0-0.613 0.12-0.613 0.493v3.173c0 0.307-0.36 0.387-0.587 0.173l-3.933-3.627c-0.119-0.123-0.286-0.2-0.471-0.2-0.003 0-0.007 0-0.010 0h-7.986c-1.318 0-2.387-1.069-2.387-2.387v-9.64c0.015-1.307 1.078-2.36 2.387-2.36 0 0 0 0 0 0v0z"></path>
</svg>
