<!-- Generated by IcoMoon.io -->
<svg version="1.1" xmlns="http://www.w3.org/2000/svg" width="32" height="32" viewBox="0 0 32 32">
<title>facebook</title>
<path fill="#fff" d="M19.32 9.333v2.667h-1.333c-1.013 0-1.080 0.373-1.080 1.067v1.333h2.427l-0.293 2.667h-2.16v7.6h-3.253v-7.667h-1.627v-2.667h1.627v-1.56c0-2.107 0.92-3.44 3.52-3.44zM16 2.667c-7.364 0-13.333 5.97-13.333 13.333s5.97 13.333 13.333 13.333c7.364 0 13.333-5.97 13.333-13.333v0c0-7.364-5.97-13.333-13.333-13.333v0zM16 1.333c8.1 0 14.667 6.566 14.667 14.667s-6.566 14.667-14.667 14.667c-8.1 0-14.667-6.566-14.667-14.667v0c0-8.1 6.566-14.667 14.667-14.667v0z"></path>
</svg>
