<!-- Generated by IcoMoon.io -->
<svg version="1.1" xmlns="http://www.w3.org/2000/svg" width="32" height="32" viewBox="0 0 32 32">
<title>fav1</title>
<path fill="#fff" d="M24.6 17.827c-2.53 3.192-5.356 5.976-8.487 8.383l-0.113 0.084c-3.247-2.492-6.073-5.28-8.524-8.38l-0.077-0.1c-1.516-2.008-2.49-4.502-2.665-7.214l-0.002-0.040c0-2.946 2.388-5.333 5.333-5.333v0 0c0.946 0.006 1.832 0.257 2.6 0.694l-0.026-0.014c0.778 0.443 1.415 1.051 1.881 1.779l0.013 0.021c0.319 0.483 0.859 0.797 1.473 0.797s1.154-0.314 1.469-0.791l0.004-0.007c0.485-0.735 1.121-1.332 1.867-1.759l0.027-0.014c0.741-0.423 1.627-0.674 2.572-0.68h0.002c2.917 0.038 5.267 2.411 5.267 5.333 0 0 0 0 0 0v-0c-0.175 2.74-1.129 5.227-2.64 7.278l0.027-0.038zM22 3.493h-0.067c-2.478 0.016-4.653 1.296-5.917 3.226l-0.017 0.027c-1.28-1.958-3.456-3.237-5.931-3.253h-0.002c-3.871 0.045-6.993 3.19-7 7.066v0.001c0.166 3.141 1.262 5.998 3.015 8.332l-0.028-0.039c2.902 3.66 6.173 6.838 9.809 9.555l0.137 0.098c3.8-2.813 7.093-5.992 9.932-9.548l0.081-0.105c1.725-2.296 2.821-5.152 2.985-8.256l0.002-0.038c-0.007-3.877-3.129-7.022-6.996-7.067l-0.004-0z"></path>
</svg>
