<!-- Generated by IcoMoon.io -->
<svg version="1.1" xmlns="http://www.w3.org/2000/svg" width="32" height="32" viewBox="0 0 32 32">
<title>fav2</title>
<path fill="#fff" d="M22 3.493h-0.067c-2.478 0.016-4.653 1.296-5.917 3.226l-0.017 0.027c-1.28-1.958-3.456-3.237-5.931-3.253h-0.002c-3.871 0.045-6.993 3.19-7 7.066v0.001c0.166 3.141 1.262 5.998 3.015 8.332l-0.028-0.039c2.902 3.66 6.173 6.838 9.809 9.555l0.137 0.098c3.8-2.813 7.093-5.992 9.932-9.548l0.081-0.105c1.725-2.296 2.821-5.152 2.985-8.256l0.002-0.038c-0.007-3.877-3.129-7.022-6.996-7.067l-0.004-0z"></path>
</svg>
