<!-- Generated by IcoMoon.io -->
<svg version="1.1" xmlns="http://www.w3.org/2000/svg" width="32" height="32" viewBox="0 0 32 32">
<title>filter</title>
<path fill="#fff" d="M18.667 6.507c0.39-0.898 1.27-1.515 2.293-1.515s1.903 0.617 2.287 1.499l0.006 0.016h4.747c0 0 0 0 0 0 0.548 0 0.992 0.44 1 0.986v0.001c0 0 0 0 0 0 0 0.555-0.446 1.006-0.999 1.013h-4.707c-0.399 0.888-1.275 1.495-2.293 1.495s-1.895-0.607-2.287-1.479l-0.006-0.016h-14.707c-0.554-0.008-1-0.458-1-1.013 0-0 0-0 0-0v0c0.008-0.547 0.452-0.987 1-0.987 0 0 0 0 0 0v0zM8.667 15c0.39-0.898 1.27-1.515 2.293-1.515s1.903 0.617 2.287 1.499l0.006 0.016h14.747c0.552 0 1 0.448 1 1s-0.448 1-1 1v0h-14.667c-0.39 0.898-1.27 1.515-2.293 1.515s-1.903-0.617-2.287-1.499l-0.006-0.016h-4.747c-0.552 0-1-0.448-1-1s0.448-1 1-1v0zM18.667 23.493c0.399-0.888 1.275-1.495 2.293-1.495s1.895 0.607 2.287 1.479l0.006 0.016h4.747c0.554 0.008 1 0.458 1 1.013 0 0 0 0 0 0v0c-0.008 0.547-0.452 0.987-1 0.987-0 0-0 0-0 0h-4.707c-0.39 0.898-1.27 1.515-2.293 1.515s-1.903-0.617-2.287-1.499l-0.006-0.016h-14.707c-0 0-0 0-0 0-0.548 0-0.992-0.44-1-0.986v-0.001c0-0 0-0 0-0 0-0.555 0.446-1.006 0.999-1.013h0.001z"></path>
</svg>
