<!-- Generated by IcoMoon.io -->
<svg version="1.1" xmlns="http://www.w3.org/2000/svg" width="32" height="32" viewBox="0 0 32 32">
<title>forward</title>
<path fill="#fff" d="M18.48 10.227c-0.144 0.15-0.232 0.355-0.232 0.58s0.089 0.43 0.233 0.58l3.8 3.8h-14.48c-0.449 0-0.813 0.364-0.813 0.813s0.364 0.813 0.813 0.813h14.467l-3.8 3.8c-0.147 0.149-0.238 0.354-0.238 0.58s0.091 0.431 0.238 0.58l-0-0c0.147 0.146 0.35 0.236 0.573 0.236s0.426-0.090 0.573-0.236l-0 0 5.147-5.187c0.071-0.071 0.129-0.155 0.171-0.248l0.002-0.005c0.039-0.094 0.063-0.204 0.067-0.319l0-0.001c-0.009-0.219-0.099-0.415-0.24-0.56l0 0-5.147-5.2c-0.144-0.157-0.35-0.255-0.579-0.255-0.216 0-0.412 0.087-0.554 0.228l0-0z"></path>
</svg>
