<!-- Generated by IcoMoon.io -->
<svg version="1.1" xmlns="http://www.w3.org/2000/svg" width="32" height="32" viewBox="0 0 32 32">
<title>instagram</title>
<path fill="#fff" d="M21.013 10.36c0.346 0 0.627 0.281 0.627 0.627v0c0 0 0 0 0 0 0 0.339-0.275 0.613-0.613 0.613-0.005 0-0.009-0-0.014-0h0.001c-0.004 0-0.009 0-0.014 0-0.331 0-0.6-0.269-0.6-0.6 0-0.005 0-0.009 0-0.014v0.001c-0-0.004-0-0.009-0-0.013 0-0.339 0.275-0.613 0.613-0.613 0 0 0 0 0 0v0zM16 13.080c-1.613 0-2.92 1.307-2.92 2.92s1.307 2.92 2.92 2.92c1.613 0 2.92-1.307 2.92-2.92v0c0-1.613-1.307-2.92-2.92-2.92v0zM16 11.333c2.577 0 4.667 2.089 4.667 4.667s-2.089 4.667-4.667 4.667c-2.577 0-4.667-2.089-4.667-4.667v0c0-2.577 2.089-4.667 4.667-4.667v0zM19.493 8.413h-6.987c-2.174 0.003-3.95 1.7-4.079 3.842l-0.001 0.011v7.227c0.003 2.169 1.693 3.943 3.828 4.079l0.012 0.001h7.227c2.174-0.003 3.95-1.7 4.079-3.842l0.001-0.011v-7.213c-0.008-2.253-1.828-4.078-4.079-4.093h-0.001zM12.507 6.667h6.987c0.006-0 0.013-0 0.020-0 3.119 0 5.666 2.451 5.819 5.533l0.001 0.014v7.28c0 0.006 0 0.013 0 0.020 0 3.119-2.451 5.666-5.533 5.819l-0.014 0.001h-7.28c-0.006 0-0.013 0-0.020 0-3.12 0-5.666-2.451-5.819-5.533l-0.001-0.014v-7.28c-0-0.006-0-0.013-0-0.020 0-3.12 2.451-5.666 5.533-5.819l0.014-0.001zM16 2.667c-7.364 0-13.333 5.97-13.333 13.333s5.97 13.333 13.333 13.333c7.364 0 13.333-5.97 13.333-13.333v0c0-7.364-5.97-13.333-13.333-13.333v0zM16 1.333c8.1 0 14.667 6.566 14.667 14.667s-6.566 14.667-14.667 14.667c-8.1 0-14.667-6.566-14.667-14.667v0c0-8.1 6.566-14.667 14.667-14.667v0z"></path>
</svg>
