<!-- Generated by IcoMoon.io -->
<svg version="1.1" xmlns="http://www.w3.org/2000/svg" width="32" height="32" viewBox="0 0 32 32">
<title>locate</title>
<path fill="#fff" d="M16 25.333c-5.155 0-9.333-4.179-9.333-9.333s4.179-9.333 9.333-9.333c5.155 0 9.333 4.179 9.333 9.333v0c0 5.155-4.179 9.333-9.333 9.333v0zM28 14.667c-0.644-5.598-5.060-9.991-10.613-10.595l-0.053-0.005v-2.067h-2.667v2.067c-5.598 0.644-9.991 5.060-10.595 10.613l-0.005 0.053h-2.067v2.667h2.067c0.614 5.627 5.040 10.052 10.613 10.662l0.054 0.005v1.933h2.667v-2c5.598-0.644 9.991-5.060 10.595-10.613l0.005-0.053h2v-2.667zM16 11c-2.761 0-5 2.239-5 5s2.239 5 5 5c2.761 0 5-2.239 5-5v0c-0.008-2.758-2.242-4.992-4.999-5h-0.001z"></path>
</svg>
