<!-- Generated by IcoMoon.io -->
<svg version="1.1" xmlns="http://www.w3.org/2000/svg" width="32" height="32" viewBox="0 0 32 32">
<title>more</title>
<path fill="#fff" d="M18.507 16c0-1.384-1.122-2.507-2.507-2.507s-2.507 1.122-2.507 2.507c0 1.384 1.122 2.507 2.507 2.507v0c1.381-0.008 2.499-1.125 2.507-2.506v-0.001zM18.507 23.493c0-1.384-1.122-2.507-2.507-2.507s-2.507 1.122-2.507 2.507c0 1.384 1.122 2.507 2.507 2.507v0c1.384 0 2.507-1.122 2.507-2.507v0zM18.507 8.507c0-0.004 0-0.009 0-0.013 0-1.384-1.122-2.507-2.507-2.507s-2.507 1.122-2.507 2.507c0 1.384 1.122 2.507 2.507 2.507v0c0 0 0 0 0 0 1.38 0 2.499-1.115 2.507-2.493v-0.001z"></path>
</svg>
