<!-- Generated by IcoMoon.io -->
<svg version="1.1" xmlns="http://www.w3.org/2000/svg" width="32" height="32" viewBox="0 0 32 32">
<title>plus</title>
<path fill="#fff" d="M23.027 15h-6.027v-6.027c0-0.552-0.448-1-1-1s-1 0.448-1 1v0 6.027h-6.027c-0.541 0.015-0.973 0.457-0.973 1 0 0 0 0 0 0v-0c-0 0.003-0 0.007-0 0.010 0 0.273 0.112 0.52 0.293 0.696l0 0c0.175 0.181 0.42 0.293 0.691 0.293 0.006 0 0.011-0 0.017-0h6.026v6.027c-0 0.005-0 0.010-0 0.016 0 0.271 0.112 0.516 0.293 0.691l0 0c0.174 0.165 0.41 0.267 0.669 0.267 0.004 0 0.007-0 0.011-0h-0.001c0.552 0 1-0.448 1-1v0-6h6.027c0.552 0 1-0.448 1-1s-0.448-1-1-1v0z"></path>
</svg>
