<!-- Generated by IcoMoon.io -->
<svg version="1.1" xmlns="http://www.w3.org/2000/svg" width="32" height="32" viewBox="0 0 32 32">
<title>search</title>
<path fill="#fff" d="M13.573 21.067c-4.136-0.014-7.483-3.369-7.483-7.507 0-4.146 3.361-7.507 7.507-7.507s7.507 3.361 7.507 7.507c0 2.072-0.84 3.948-2.197 5.307l0-0c-1.35 1.359-3.221 2.2-5.287 2.2-0.016 0-0.032-0-0.048-0h0.002zM27.72 26.267l-6.667-6.667c1.303-1.622 2.092-3.705 2.092-5.973 0-5.287-4.286-9.573-9.573-9.573s-9.573 4.286-9.573 9.573c0 5.287 4.286 9.573 9.573 9.573 2.299 0 4.408-0.81 6.059-2.161l-0.017 0.014 6.667 6.667c0.187 0.197 0.452 0.32 0.745 0.32 0.001 0 0.001 0 0.002 0h-0c0.002 0 0.005 0 0.007 0 0.271 0 0.518-0.107 0.7-0.28l-0 0c0.195-0.187 0.315-0.45 0.315-0.74 0-0.297-0.126-0.565-0.328-0.752l-0.001-0.001z"></path>
</svg>
