<!-- Generated by IcoMoon.io -->
<svg version="1.1" xmlns="http://www.w3.org/2000/svg" width="32" height="32" viewBox="0 0 32 32">
<title>share</title>
<path fill="#fff" d="M27.787 14.4l-8.813-8.253c-0.080-0.080-0.186-0.134-0.304-0.146l-0.002-0c-0.28 0-0.627 0.213-0.627 0.507v4.16c-0.005 0.129-0.101 0.234-0.225 0.253l-0.002 0c-8.813 1.32-12.48 7.88-13.813 14.693 0 0.267 0.32 0.52 0.48 0.307 2.923-4.058 7.635-6.669 12.957-6.669 0.104 0 0.208 0.001 0.312 0.003l-0.016-0c0.145 0.025 0.256 0.145 0.267 0.292l0 0.001v4c0.024 0.274 0.253 0.488 0.531 0.488 0.146 0 0.279-0.059 0.375-0.154l-0 0 8.88-8.4c0.132-0.12 0.214-0.292 0.214-0.484 0-0.013-0-0.025-0.001-0.038l0 0.002c0-0.005 0-0.010 0-0.016 0-0.21-0.081-0.402-0.214-0.545l0 0.001z"></path>
</svg>
