<!-- Generated by IcoMoon.io -->
<svg version="1.1" xmlns="http://www.w3.org/2000/svg" width="32" height="32" viewBox="0 0 32 32">
<title>twitter</title>
<path fill="#fff" d="M19.027 10.667c0.834 0.005 1.581 0.375 2.091 0.957l0.003 0.003c0.691-0.146 1.302-0.4 1.85-0.747l-0.023 0.014c-0.214 0.705-0.663 1.284-1.255 1.659l-0.012 0.007c0.613-0.071 1.172-0.236 1.686-0.48l-0.032 0.014c-0.392 0.608-0.865 1.124-1.413 1.55l-0.014 0.010v0.4c0.003 0.076 0.004 0.166 0.004 0.255 0 4.553-3.639 8.256-8.168 8.358l-0.009 0c-0.004 0-0.009 0-0.014 0-1.635 0-3.154-0.498-4.414-1.351l0.028 0.018c0.102 0.006 0.22 0.010 0.34 0.010s0.238-0.004 0.356-0.011l-0.016 0.001c1.368-0.012 2.617-0.515 3.581-1.34l-0.008 0.006c-1.268-0.058-2.32-0.92-2.662-2.086l-0.005-0.021c0.080 0.010 0.173 0.015 0.267 0.015s0.187-0.006 0.278-0.016l-0.011 0.001c0.271-0.001 0.532-0.040 0.78-0.112l-0.020 0.005c-1.333-0.324-2.307-1.508-2.307-2.919 0-0.019 0-0.038 0.001-0.057l-0 0.003c0.383 0.222 0.841 0.359 1.329 0.373l0.004 0c-0.807-0.558-1.33-1.478-1.333-2.519v-0.001c0-0.001 0-0.001 0-0.002 0-0.557 0.143-1.080 0.395-1.534l-0.008 0.016c1.385 1.817 3.499 3.016 5.898 3.159l0.022 0.001c-0.043-0.19-0.067-0.407-0.067-0.631 0-0.022 0-0.044 0.001-0.066l-0 0.003c0-0 0-0.001 0-0.001 0-1.604 1.282-2.909 2.877-2.946l0.003-0zM16 2.667c-7.364 0-13.333 5.97-13.333 13.333s5.97 13.333 13.333 13.333c7.364 0 13.333-5.97 13.333-13.333v0c0-7.364-5.97-13.333-13.333-13.333v0zM16 1.333c8.1 0 14.667 6.566 14.667 14.667s-6.566 14.667-14.667 14.667c-8.1 0-14.667-6.566-14.667-14.667v0c0-8.1 6.566-14.667 14.667-14.667v0z"></path>
</svg>
