<!-- Generated by IcoMoon.io -->
<svg version="1.1" xmlns="http://www.w3.org/2000/svg" width="32" height="32" viewBox="0 0 32 32">
<title>youtube</title>
<path fill="#fff" d="M16 10.44c-0.022 0.388-0.035 0.843-0.035 1.3s0.013 0.912 0.038 1.363l-0.003-0.063c0.030 0.155 0.165 0.271 0.327 0.271 0.078 0 0.15-0.027 0.207-0.072l-0.001 0.001c0.16-0.12 0.16-0.133 0.16-1.427 0.023-0.2 0.036-0.432 0.036-0.667s-0.013-0.467-0.039-0.695l0.003 0.028c0-0.187-0.107-0.28-0.253-0.32-0.026-0.007-0.056-0.011-0.087-0.011-0.174 0-0.32 0.124-0.353 0.288l-0 0.002zM14.667 7.853h0.453v0.067s-0.32 1.080-0.64 2.107c0 0.12-0.133 0.413-0.2 0.653s-0.173 0.533-0.2 0.653l-0.067 0.2v1.947c0 0.52 0 0.573 0 0.573-0.142 0.013-0.307 0.020-0.473 0.020s-0.332-0.007-0.494-0.022l0.021 0.002s0-1.813 0-2.067c0-0.019 0.001-0.041 0.001-0.063 0-0.423-0.099-0.824-0.274-1.179l0.007 0.016c-0.080-0.213-0.213-0.627-0.307-0.92-0.653-2.013-0.64-1.973-0.587-1.973h1s0.147 0.52 0.32 1.147 0.32 1.133 0.32 1.147 0.107-0.347 0.227-0.8c0.253-0.96 0.387-1.48 0.4-1.48zM17.107 9.573c0.265 0.174 0.451 0.448 0.506 0.767l0.001 0.007c0.012 0.14 0.019 0.302 0.019 0.467s-0.007 0.327-0.020 0.488l0.001-0.021v0.84c0 0.92 0 1.013-0.147 1.267-0.165 0.296-0.431 0.519-0.751 0.624l-0.009 0.003c-0.076 0.009-0.164 0.014-0.253 0.014s-0.177-0.005-0.264-0.015l0.011 0.001c-0.399-0.054-0.737-0.278-0.944-0.595l-0.003-0.005c-0.187-0.32-0.2-0.493-0.187-1.907-0.026-0.2-0.040-0.432-0.040-0.667s0.015-0.466 0.043-0.694l-0.003 0.027c0.082-0.346 0.313-0.625 0.62-0.77l0.007-0.003c0.164-0.078 0.357-0.124 0.561-0.124 0.319 0 0.612 0.112 0.841 0.299l-0.002-0.002zM20.787 9.413v4.627c-0.080 0-0.76 0-0.813 0s0 0 0-0.12v-0.307l-0.12 0.12c-0.208 0.231-0.508 0.375-0.842 0.375-0.023 0-0.045-0.001-0.067-0.002l0.003 0c-0.001 0-0.002 0-0.004 0-0.193 0-0.359-0.113-0.435-0.277l-0.001-0.003c-0.093-0.187-0.107-0.213-0.12-1.44v-2.96h0.907v1.867c0 2.027 0 1.973 0.133 2.013s0.24 0 0.4-0.2l0.147-0.147v-3.533h0.893zM20.787 18.347c0.009-0.001 0.019-0.001 0.030-0.001 0.154 0 0.286 0.093 0.343 0.225l0.001 0.002c0 0.093 0 0.133 0 0.48v0.387h-0.667c-0.173 0-0.213 0-0.227 0-0.009-0.114-0.014-0.246-0.014-0.38s0.005-0.266 0.015-0.397l-0.001 0.017c0.022-0.202 0.192-0.357 0.398-0.357 0.049 0 0.095 0.009 0.138 0.025l-0.003-0.001zM17.333 18.52c0.227-0.173 0.493-0.16 0.587 0s0 0.147 0 1.333c0.016 0.2 0.024 0.432 0.024 0.667s-0.009 0.467-0.026 0.697l0.002-0.031c-0.017 0.069-0.061 0.125-0.119 0.159l-0.001 0.001c-0.060 0.032-0.131 0.052-0.207 0.052-0.116 0-0.222-0.045-0.3-0.118l0 0h-0.067v-2.693zM10.067 16.12v0.827h0.987v2.667c0 1.44 0 2.667 0 2.667 0.068 0.012 0.147 0.019 0.227 0.019s0.159-0.007 0.235-0.021l-0.008 0.001h0.493v-5.333h1.013v-0.813h-2.973zM13.987 17.707h-0.813v2.667c0 1.413 0 1.48 0.12 1.653 0.113 0.148 0.29 0.243 0.489 0.243 0.104 0 0.202-0.026 0.288-0.071l-0.003 0.002c0.197-0.082 0.365-0.195 0.507-0.334l-0 0 0.16-0.133s0 0 0 0.147v0.333h0.8v-4.507h-0.8v3.507l-0.173 0.16c-0.070 0.087-0.16 0.155-0.262 0.198l-0.004 0.002c-0.147 0-0.24 0-0.293-0.093s0-0.107 0-1.92zM20.413 17.707c-0.396 0.13-0.695 0.455-0.785 0.859l-0.001 0.008c-0.015 0.126-0.023 0.272-0.023 0.42s0.008 0.294 0.025 0.438l-0.002-0.018v1c0 0.933 0 1 0.147 1.24 0.217 0.391 0.628 0.651 1.099 0.651 0.126 0 0.248-0.019 0.363-0.053l-0.009 0.002c0.405-0.1 0.721-0.403 0.838-0.792l0.002-0.008c0.006-0.066 0.009-0.143 0.009-0.22s-0.003-0.154-0.009-0.23l0.001 0.010v-0.307h-0.813v0.28c0 0.307 0 0.413-0.16 0.52-0.071 0.050-0.158 0.080-0.253 0.080s-0.183-0.030-0.255-0.081l0.001 0.001c-0.173-0.12-0.213-0.307-0.213-0.96v-0.453h1.693v-0.68c0-0.76 0-0.867-0.16-1.133-0.21-0.392-0.617-0.653-1.084-0.653-0.157 0-0.306 0.029-0.444 0.083l0.008-0.003zM17.2 16.12h-0.787v6.133h0.787v-0.213c0-0.133 0-0.2 0-0.2 0.077 0.045 0.143 0.098 0.199 0.159l0.001 0.001c0.167 0.185 0.407 0.301 0.674 0.301 0.087 0 0.172-0.012 0.252-0.035l-0.006 0.002c0.155-0.070 0.277-0.191 0.345-0.342l0.002-0.004c0.12-0.24 0.133-0.293 0.133-1.253v-1.333c0.013-0.154 0.021-0.333 0.021-0.513s-0.008-0.36-0.023-0.536l0.002 0.023c-0.12-0.467-0.36-0.68-0.773-0.653-0.246 0.028-0.46 0.146-0.612 0.319l-0.001 0.001-0.187 0.16c-0.008-0.124-0.013-0.268-0.013-0.413s0.005-0.29 0.014-0.433l-0.001 0.020zM17.893 14.667c1.573 0 3.267 0.107 3.72 0.147 0.598 0.035 1.102 0.405 1.329 0.923l0.004 0.010c0.228 0.495 0.361 1.073 0.361 1.683 0 0.027-0 0.054-0.001 0.081l0-0.004c0.054 0.548 0.084 1.184 0.084 1.828 0 0.145-0.002 0.289-0.005 0.434l0-0.021c0 0.026 0 0.056 0 0.087 0 0.911-0.073 1.804-0.213 2.676l0.013-0.096c-0.084 0.535-0.35 0.998-0.731 1.331l-0.003 0.002c-0.267 0.208-0.608 0.334-0.978 0.334-0.008 0-0.016-0-0.023-0h-0.372c-0.267 0-1.653 0.080-2.413 0.107-1.147 0-3.12 0-4.2 0h-1.333c-1.56 0-2.667-0.107-2.84-0.16-0.394-0.064-0.729-0.273-0.957-0.57l-0.003-0.004c-0.327-0.427-0.537-0.959-0.573-1.539l-0-0.008c-0.089-0.776-0.14-1.675-0.14-2.587s0.051-1.811 0.15-2.695l-0.010 0.109c0.039-0.606 0.285-1.148 0.668-1.562l-0.002 0.002c0.173-0.186 0.401-0.319 0.659-0.372l0.008-0.001c1.532-0.117 3.318-0.184 5.12-0.184 0.943 0 1.881 0.018 2.814 0.054l-0.134-0.004zM16 3c-0.048-0.001-0.104-0.001-0.161-0.001-7.215 0-13.075 5.8-13.172 12.992l-0 0.009c0.090 7.207 5.953 13.014 13.172 13.014 0.057 0 0.113-0 0.17-0.001l-0.009 0c0.048 0.001 0.104 0.001 0.161 0.001 7.22 0 13.083-5.808 13.172-13.006l0-0.008c-0.097-7.201-5.957-13.001-13.172-13.001-0.057 0-0.113 0-0.17 0.001l0.009-0zM16 1.667c0.052-0.001 0.113-0.001 0.174-0.001 7.949 0 14.403 6.399 14.492 14.326l0 0.008c-0.090 7.943-6.55 14.348-14.506 14.348-0.057 0-0.113-0-0.169-0.001l0.009 0c-0.048 0.001-0.104 0.001-0.161 0.001-7.956 0-14.416-6.404-14.506-14.339l-0-0.008c0.090-7.936 6.544-14.334 14.492-14.334 0.061 0 0.122 0 0.184 0.001l-0.009-0z"></path>
</svg>
