<?xml version="1.0" standalone="no"?>
<!DOCTYPE svg PUBLIC "-//W3C//DTD SVG 20010904//EN"
 "http://www.w3.org/TR/2001/REC-SVG-20010904/DTD/svg10.dtd">
<svg version="1.0" xmlns="http://www.w3.org/2000/svg"
 width="700.000000pt" height="700.000000pt" viewBox="0 0 700.000000 700.000000"
 preserveAspectRatio="xMidYMid meet">
<metadata>
Created by potrace 1.11, written by Peter Selinger 2001-2013
</metadata>
<g transform="translate(0.000000,700.000000) scale(0.100000,-0.100000)"
fill="#000000" stroke="none">
<path d="M3215 6989 c-745 -64 -1437 -353 -1995 -835 -551 -475 -938 -1101
-1114 -1799 -73 -291 -101 -529 -101 -860 1 -404 50 -722 171 -1090 254 -772
784 -1445 1476 -1876 447 -278 924 -443 1483 -511 130 -16 600 -16 730 0 451
55 818 163 1195 351 729 364 1312 973 1639 1714 144 325 238 674 283 1052 16
139 16 595 0 730 -61 497 -198 932 -418 1327 -538 964 -1489 1620 -2569 1772
-249 35 -546 45 -780 25z m731 -1289 c176 -14 308 -35 453 -70 120 -29 314
-102 379 -142 l32 -20 0 -467 0 -468 -132 67 c-306 152 -625 219 -987 207
-291 -10 -495 -79 -698 -234 -232 -177 -376 -412 -445 -725 -28 -130 -36 -462
-14 -603 43 -281 147 -495 331 -680 196 -198 398 -298 687 -341 133 -20 375
-15 528 11 237 39 459 122 648 242 29 18 55 33 57 33 3 0 5 -216 5 -481 l0
-480 -92 -44 c-281 -130 -584 -188 -1003 -188 -358 -1 -607 41 -890 148 -569
216 -1053 734 -1236 1320 -35 115 -68 271 -85 404 -20 168 -15 570 10 724 79
484 252 838 565 1161 263 269 544 438 901 541 280 81 645 112 986 85z"/>
</g>
</svg>
